<?xml version="1.0" encoding="UTF-8" standalone="no"?>
<svg
   width="800"
   height="800"
   viewBox="0 0 800 800"
   fill="none"
   version="1.1"
   id="svg6"
   sodipodi:docname="immich.svg"
   inkscape:version="1.3.2 (091e20e, 2023-11-25, custom)"
   xmlns:inkscape="http://www.inkscape.org/namespaces/inkscape"
   xmlns:sodipodi="http://sodipodi.sourceforge.net/DTD/sodipodi-0.dtd"
   xmlns="http://www.w3.org/2000/svg"
   xmlns:svg="http://www.w3.org/2000/svg">
  <defs
     id="defs6" />
  <sodipodi:namedview
     id="namedview6"
     pagecolor="#ffffff"
     bordercolor="#000000"
     borderopacity="0.25"
     inkscape:showpageshadow="2"
     inkscape:pageopacity="0.0"
     inkscape:pagecheckerboard="0"
     inkscape:deskcolor="#d1d1d1"
     inkscape:zoom="1.674775"
     inkscape:cx="177.93434"
     inkscape:cy="372.8859"
     inkscape:window-width="3840"
     inkscape:window-height="2054"
     inkscape:window-x="-11"
     inkscape:window-y="-11"
     inkscape:window-maximized="1"
     inkscape:current-layer="svg6" />
  <rect
     x="3.4782598"
     y="3.4782598"
     width="793.04352"
     height="793.04346"
     rx="396.52176"
     fill="#ffffff"
     id="rect1"
     style="stroke-width:8.33333" />
  <rect
     x="3.4782598"
     y="3.4782598"
     width="793.04352"
     height="793.04346"
     rx="396.52176"
     stroke="#e9eaec"
     stroke-width="6.95652"
     id="rect2" />
  <path
     d="m 378.46674,279.78754 c 39.21584,34.90835 70.82001,72.31752 91.15919,107.57252 34.93333,-62.81667 58.27584,-137.46085 58.57,-185.00253 0,-0.33669 0,-0.64331 0,-0.92833 0,-70.34834 -69.795,-97.72668 -129.91836,-97.72668 -60.1225,0 -129.91835,27.37834 -129.91835,97.72668 0,0.95917 0,2.245 0,3.79583 33.5125,14.98001 73.23585,41.74501 110.10752,74.56251 z"
     fill="#fa2921"
     id="path2"
     style="stroke-width:8.33333" />
  <path
     d="m 164.53586,471.62591 c 24.51001,-27.41917 62.11252,-57.13418 104.54586,-82.25668 45.14334,-26.715 90.29668,-45.37834 129.92836,-53.91917 -48.62418,-52.81751 -112.01502,-98.20586 -156.9042,-113.17502 -0.315,-0.10252 -0.60916,-0.19419 -0.87334,-0.28586 -66.5475,-21.73501 -114.01501,36.54083 -132.58752,94.03168 -18.572502,57.49084 -14.249168,132.69585 52.29835,154.43086 0.90332,0.29586 2.12083,0.69415 3.59249,1.17417 z"
     fill="#ed79b5"
     id="path3"
     style="stroke-width:8.33333" />
  <path
     d="M 688.61764,315.05255 C 670.04513,257.56171 622.57762,199.28587 556.0301,221.02087 c -0.91332,0.29586 -2.13082,0.6933 -3.59249,1.17334 -3.80584,36.66333 -16.8475,82.93 -36.49668,128.32835 -20.89667,48.28667 -46.52334,90.07335 -73.59085,120.41002 70.21168,14 148.03504,13.245 193.09671,-1.16334 0.315,-0.10166 0.60917,-0.20418 0.8725,-0.28585 66.54751,-21.74501 70.87168,-96.95002 52.29835,-154.43086 z"
     fill="#ffb400"
     id="path4"
     style="stroke-width:8.33333" />
  <path
     d="M 338.9409,527.83092 C 327.62506,476.41174 323.92006,427.46174 328.08173,386.93006 263.09671,417.10423 200.57837,463.69675 172.5367,501.99342 c -0.19333,0.26501 -0.37583,0.52079 -0.53833,0.74497 -41.12418,56.91918 -0.66917,120.31836 47.97501,155.8392 48.63417,35.53083 121.10918,54.63333 162.24336,-2.28584 0.56833,-0.77582 1.31917,-1.81667 2.2225,-3.07167 -18.36,-31.90834 -34.86167,-77.05168 -45.49834,-125.38918 z"
     fill="#1e83f7"
     id="path5"
     style="stroke-width:8.33333" />
  <path
     d="m 624.17262,499.07091 c -35.85668,7.69418 -83.64918,9.52084 -132.66919,4.75501 -52.13585,-5.06084 -99.57253,-16.65334 -136.63669,-33.16335 8.45416,71.46002 33.2175,145.64503 60.77251,184.28837 0.19249,0.26587 0.37583,0.5208 0.53833,0.74498 41.12334,56.91917 113.59836,37.81667 162.24253,2.28583 48.63501,-35.53084 89.09918,-98.93002 47.97501,-155.83919 -0.56833,-0.77582 -1.31916,-1.81667 -2.2225,-3.07167 z"
     fill="#18c249"
     id="path6"
     style="stroke-width:8.33333" />
</svg>
