<?xml version="1.0" encoding="UTF-8" standalone="no"?>
<svg
   width="800px"
   height="800px"
   version="1.1"
   viewBox="0 0 28 28"
   id="svg4"
   sodipodi:docname="mattermost_94652.svg"
   inkscape:version="1.3.2 (091e20e, 2023-11-25, custom)"
   xmlns:inkscape="http://www.inkscape.org/namespaces/inkscape"
   xmlns:sodipodi="http://sodipodi.sourceforge.net/DTD/sodipodi-0.dtd"
   xmlns="http://www.w3.org/2000/svg"
   xmlns:svg="http://www.w3.org/2000/svg">
  <defs
     id="defs4" />
  <sodipodi:namedview
     id="namedview4"
     pagecolor="#ffffff"
     bordercolor="#000000"
     borderopacity="0.25"
     inkscape:showpageshadow="2"
     inkscape:pageopacity="0.0"
     inkscape:pagecheckerboard="0"
     inkscape:deskcolor="#d1d1d1"
     inkscape:zoom="56.84375"
     inkscape:cx="15.991204"
     inkscape:cy="14.592633"
     inkscape:window-width="3840"
     inkscape:window-height="2054"
     inkscape:window-x="-11"
     inkscape:window-y="-11"
     inkscape:window-maximized="1"
     inkscape:current-layer="svg4" />
  <circle
     style="fill:#1f325c;fill-opacity:1"
     cx="14"
     cy="14"
     r="14"
     id="circle2" />
  <path
     d="M 14,4.9999999 A 10,10 0 0 0 4.0000003,15 10,10 0 0 0 14,25 10,10 0 0 0 24,15 10,10 0 0 0 18.732422,6.2011718 c 0.08232,0.1604117 0.155017,0.3470364 0.203125,0.578125 a 2.0002,2.0002 0 0 1 0.04297,0.4082031 v 1.896484 A 7,7 0 0 1 21.000001,14 a 7,7 0 0 1 -7,7 7,7 0 0 1 -6.9999997,-7 7,7 0 0 1 6.7578117,-6.9921876 c 0.211478,-0.2423601 0.477177,-0.5420631 0.591797,-0.6757813 0.155495,-0.1814017 0.306173,-0.3480139 0.447266,-0.4960937 0.07055,-0.07404 0.136963,-0.1424831 0.220703,-0.2207031 0.08374,-0.07822 -0.138861,-0.1042048 0.666016,-0.4433594 0.02246,-0.00946 0.03301,-0.00874 0.05469,-0.017578 a 10,10 0 0 0 -1.738284,-0.154297 z m 2.460938,2.015625 c -0.05544,0.023361 -0.32082,0.3030162 -0.591797,0.6191406 -0.270975,0.3161237 -0.864156,0.9920534 -1.316407,1.5039064 -0.45225,0.511851 -1.310787,1.4914141 -1.90625,2.1757811 -1.169833,1.344488 -1.356119,1.615337 -1.548828,2.253906 -0.120354,0.398827 -0.130942,1.041863 -0.02344,1.416016 0.294746,1.025699 1.280161,1.794662 2.550781,1.992187 0.05776,0.009 0.256613,0.02101 0.441406,0.02344 0.769919,0.01057 1.425436,-0.236712 1.980469,-0.75 0.292526,-0.270524 0.372923,-0.377044 0.552734,-0.722656 0.115865,-0.222684 0.241739,-0.519349 0.28125,-0.658203 0.101366,-0.356146 0.150379,-1.093486 0.09766,-2.777344 V 7.1875019 C 16.950922,7.0549506 16.586053,6.962905 16.460938,7.0156249 Z"
     style="opacity:0.2"
     id="path3" />
  <path
     style="fill:#ffffff"
     d="M 14,3.9999999 A 10,10 0 0 0 4.0000003,14 10,10 0 0 0 14,24 10,10 0 0 0 24,14 10,10 0 0 0 18.732422,5.2011718 c 0.08232,0.1604117 0.155017,0.3470364 0.203125,0.578125 a 2.0002,2.0002 0 0 1 0.04297,0.4082031 v 1.896484 A 7,7 0 0 1 21.000001,13 a 7,7 0 0 1 -7,7 7,7 0 0 1 -6.9999997,-7 7,7 0 0 1 6.7578117,-6.9921876 c 0.211478,-0.2423601 0.477177,-0.5420631 0.591797,-0.6757813 0.155495,-0.1814017 0.306173,-0.3480139 0.447266,-0.4960937 0.07055,-0.07404 0.136963,-0.1424831 0.220703,-0.2207031 0.08374,-0.07822 -0.138861,-0.1042048 0.666016,-0.4433594 0.02246,-0.00946 0.03301,-0.00874 0.05469,-0.017578 a 10,10 0 0 0 -1.738284,-0.154297 z m 2.460938,2.015625 c -0.05544,0.023361 -0.32082,0.3030162 -0.591797,0.6191406 -0.270975,0.3161237 -0.864156,0.9920538 -1.316407,1.5039064 -0.45225,0.511851 -1.310787,1.491414 -1.90625,2.1757811 -1.169833,1.344488 -1.356119,1.615337 -1.548828,2.253906 -0.120354,0.398827 -0.130942,1.041863 -0.02344,1.416016 0.294746,1.025699 1.280161,1.794662 2.550781,1.992187 0.05776,0.009 0.256613,0.02101 0.441406,0.02344 0.769919,0.01057 1.425436,-0.236712 1.980469,-0.75 0.292526,-0.270524 0.372923,-0.377044 0.552734,-0.722656 0.115865,-0.222684 0.241739,-0.519349 0.28125,-0.658203 0.101366,-0.356146 0.150379,-1.093486 0.09766,-2.777344 V 6.1874999 C 16.950922,6.0549506 16.586053,5.962905 16.460938,6.0156249 Z"
     id="path4" />
</svg>
