<?xml version="1.0" encoding="UTF-8" standalone="no"?>
<!-- Uploaded to: SVG Repo, www.svgrepo.com, Generator: SVG Repo Mixer Tools -->

<svg
   width="800px"
   height="800px"
   viewBox="0 0 1024 1024"
   class="icon"
   version="1.1"
   id="svg49"
   sodipodi:docname="splash.svg"
   inkscape:version="1.3.2 (091e20e, 2023-11-25, custom)"
   xmlns:inkscape="http://www.inkscape.org/namespaces/inkscape"
   xmlns:sodipodi="http://sodipodi.sourceforge.net/DTD/sodipodi-0.dtd"
   xmlns="http://www.w3.org/2000/svg"
   xmlns:svg="http://www.w3.org/2000/svg">
  <defs
     id="defs49" />
  <sodipodi:namedview
     id="namedview49"
     pagecolor="#ffffff"
     bordercolor="#000000"
     borderopacity="0.25"
     inkscape:showpageshadow="2"
     inkscape:pageopacity="0.0"
     inkscape:pagecheckerboard="0"
     inkscape:deskcolor="#d1d1d1"
     inkscape:zoom="1.607784"
     inkscape:cx="617.62026"
     inkscape:cy="469.27944"
     inkscape:window-width="3840"
     inkscape:window-height="2054"
     inkscape:window-x="-11"
     inkscape:window-y="-11"
     inkscape:window-maximized="1"
     inkscape:current-layer="svg49" />
  <path
     d="M 512,512 M 6.4,512 a 505.6,505.6 0 1 0 1011.2,0 505.6,505.6 0 1 0 -1011.2,0 z"
     fill="#95c4f8"
     id="path1"
     style="stroke-width:0.9875" />
  <path
     d="M 48.86645,309.14972 A 501.65987,501.65987 0 0 0 15.210475,418.28428 1450.5664,1450.5664 0 0 0 14.3,468.55198 c 0,46.25845 6.756475,91.0159 19.167375,133.58505 92.084375,4.65705 237.845305,4.66495 237.845305,4.66495 l 80.05267,-122.45 L 298.7,483.03267 c -98.71643,0 -166.18242,-138.14532 -249.83355,-173.88295 z M 874.34732,411.93268 C 820.1,411.93268 797.71732,483.56 725.3,483.56 L 749,650.25 c 0,0 185.65,15.563 201.45,19.6315 8.94675,2.30482 29.28135,-4.29365 45.24923,-10.4517 C 1009.8995,612.77833 1017.6,563.2947 1017.6,512 c 0,-3.60635 -0.1975,-7.16135 -0.2725,-10.74993 -2.9329,-2.34037 -112.0655,-89.31739 -142.98018,-89.31739 z"
     fill="#7e7e92"
     id="path2"
     style="stroke-width:0.9875" />
  <path
     d="M 675.26732,914.9 944.0194,774.77177 C 974.97357,723.9886 997.11727,667.28437 1008.596,606.8 c 0,0 -106.5335,2.9625 -148.99403,-15.8 C 807.39088,567.93003 689.05282,404.6706 615.03773,306.6632 601.27592,289.3543 587.92098,273.28373 575.20197,259.2 c -21.94817,-24.30435 -86.04482,-31.6 -94.8,-31.6 -7.58597,0 -69.00255,72.2534 -113.8311,126.40593 C 298.99032,436.52933 219.4235,535.9765 180.2,575.2 l -65.71812,134.3 z"
     fill="#6e6e84"
     id="path3"
     style="stroke-width:0.9875" />
  <path
     d="M 955.71732,637.05898 C 878.03465,637.05898 800.91683,648.67 709.5,571.25 673.95,541.1431 638.79895,512.19355 608.775,548.5375 590.0125,571.25 555.25645,646.3 512,614.7 468.74355,583.1 450.52417,485.43625 409.3,484.35 375.725,483.4652 348.075,532.42545 323.34405,505.41733 307.06215,487.6364 157.4875,591.9875 157.4875,591.9875 c 0,0 153.0625,135.9037 174.7875,134.6081 21.725,-1.2956 149.90645,18.2806 149.90645,18.2806 0,0 45.47043,53.55608 68.82282,44.94113 23.35241,-8.61495 80.4141,9.35162 113.12603,-5.14685 32.71192,-14.4965 188.73297,-79.12048 192.10035,-87.02048 3.36738,-7.9 99.48667,-60.59102 99.48667,-60.59102 z"
     fill="#5f5f74"
     id="path4"
     style="stroke-width:0.9875" />
  <path
     d="M 353.50625,606.80197 C 328.41585,595.345 333.87278,565.52448 306.10625,556.4375 278.95,547.55 275.49375,541.13125 260.1875,527.8 244.88125,514.46875 224.0845,532.3741 210.31875,505.0875 202.34765,489.28553 168.35,482.375 154.03125,468.55 139.7125,454.725 114.15205,459.2991 103.175,454.725 79.475,444.85 88.85625,430.53125 60.7125,433.49375 41.0257,435.56553 30.564125,419.7754 15.838525,414.7668 a 505.91205,505.91205 0 0 0 -8.57545,68.52065 L 130.825,550.5125 c 0,0 120.475,39.00625 129.3625,42.4625 8.8875,3.45625 144.7359,62.14535 140.7227,56.7615 -7.16333,-9.60838 -27.40707,-33.80212 -47.40395,-42.93453 z"
     fill="#36b294"
     id="path5"
     style="stroke-width:0.9875" />
  <path
     d="m 462.01473,715.98985 c -7.3707,-3.67547 -24.53346,-12.9402 -39.5474,-32.82252 C 407.45338,663.285 407.325,650.25 389.55,641.3625 369.56498,631.369 369.8,630.5 346.1,618.65 322.4,606.8 322.4,598.9 308.08125,582.1125 292.3721,563.69563 267.99073,564.70682 244.29072,554.17415 220.59072,543.64148 210.5597,524.92242 196,517.925 c -14.5597,-6.99742 -23.7,0.65768 -36.86733,-6.05535 -17.84412,-9.09882 -18.88889,-34.92787 -41.15702,-32.2952 C 95.707525,482.20712 90.1637,490.0696 74.86535,476.45 49.354275,453.7375 37.504275,468.05625 9.1334,459.32675 A 511.66917,511.66917 0 0 0 6.4,512 c 0,42.67778 5.346325,84.09945 15.3023,123.68635 22.501175,4.39043 47.153125,9.06722 71.710275,14.56365 76.477925,17.11732 277.704755,80.31733 348.804755,92.16733 71.1,11.85 27.17007,-22.752 19.7974,-26.42748 z"
     fill="#00a07d"
     id="path6"
     style="stroke-width:0.9875" />
  <path
     d="M 8.286125,554.17415 C 20.448175,701.30178 95.5041,830.54577 206.62155,914.9 H 389.12933 L 638.4,764.8 C 431.09017,764.8 315.53095,555.04512 8.286125,554.17415 Z"
     fill="#52c883"
     id="path7"
     style="stroke-width:0.9875" />
  <path
     d="m 512,1017.6 c 246.81575,0 452.20192,-176.89877 496.594,-410.79803 C 821.64248,606.85727 592.9592,840.80195 385.6,812.2 271.05,796.4 241.425,764.73483 93.412575,795.6179 184.35342,929.57623 337.88795,1017.6 512,1017.6 Z"
     fill="#34be71"
     id="path8"
     style="stroke-width:0.9875" />
  <path
     d="M 965.71675,734.93405 C 685.8,681.85 626.53025,899.58388 187.72672,899.6372 275.5214,973.1704 388.51905,1017.6 512,1017.6 c 199.19257,0 371.34147,-115.2531 453.71675,-282.66595 z"
     fill="#44a67d"
     id="path24"
     style="stroke-width:0.9875" />
  <path
     d="M 615.03575,306.6632 C 601.27395,289.3543 587.919,273.28373 575.2,259.2 c -21.94817,-24.30435 -86.04483,-31.6 -94.8,-31.6 -7.58598,0 -69.00255,72.2534 -113.8311,126.40593 -17.18447,20.98437 -35.14315,43.06092 -53.0169,64.96762 7.72818,10.7835 22.6809,25.97125 44.82065,23.81257 43.57048,-4.2502 52.07088,-55.25852 85.01388,-51.0103 44.87595,5.7907 38.06417,136.02418 85.01585,136.02418 45.69557,0 14.0067,-98.76975 68.01109,-119.0214 39.78045,-14.91717 54.44681,27.85145 121.48225,33.40712 C 681.22985,395.31107 644.59755,345.8077 615.03575,306.6632 Z"
     fill="#c3e1f5"
     id="path26"
     style="stroke-width:0.9875" />
  <path
     d="m 633.95625,331.81087 c -6.53922,-8.70975 -12.90662,-17.18645 -18.91852,-25.14767 -13.76181,-17.3089 -27.11675,-33.37948 -39.83576,-47.4632 -21.94817,-24.30435 -86.04482,-31.6 -94.8,-31.6 -5.28707,0 -36.72512,35.10562 -70.468,74.70832 36.893,-29.28332 57.0222,-17.23384 63.88335,17.02055 15.84543,79.10863 32.91733,142.63648 52.66733,92.60381 19.75,-50.03268 11.06987,-78.68598 69.00255,-72.74518 22.86655,2.34433 27.57692,-4.35093 38.46905,-7.37663 z"
     fill="#edf5fb"
     id="path27"
     style="stroke-width:0.9875" />
  <path
     d="m 955.71338,455.28985 c -31.3551,-21.88892 -66.00845,-43.35717 -81.36605,-43.35717 -34.34525,0 -55.94583,28.68292 -85.53133,49.75025 l 0.0217,0.0138 c 49.03727,-8.28908 52.61795,54.91487 75.33045,54.91487 26.57757,0 27.3024,-33.89692 53.3645,-22.38662 50.69232,22.38662 12.50965,-29.95285 38.1807,-38.93515 z"
     fill="#c3e1f5"
     id="path34"
     style="stroke-width:0.9875" />
  <path
     d="m 924.89942,434.87428 c -20.99622,-13.08438 -40.18927,-22.9416 -50.55407,-22.9416 -23.47683,0 -41.01482,13.4458 -59.2026,28.65527 25.87448,11.2812 46.40065,44.15508 78.17445,23.02258 21.05745,-14.00473 24.87908,-22.54265 31.58222,-28.73625 z"
     fill="#edf5fb"
     id="path35"
     style="stroke-width:0.9875" />
  <path
     d="m 512,1017.6 c 133.0439,0 253.99093,-51.4606 344.23065,-135.48302 C 801.3375,891.2 717.89572,798.375 631.07867,832.23835 592.39633,847.32735 469.33605,951.71795 362.09947,994.8401 409.47973,1009.54 459.78495,1017.6 512,1017.6 Z"
     fill="#5f5f74"
     id="path48"
     style="stroke-width:0.9875" />
  <path
     d="m 631.07867,832.23835 c -38.68234,15.089 -161.74262,119.4796 -268.9792,162.60175 3.61228,1.11983 7.35096,1.93353 10.99681,2.97435 C 481.51192,972.175 609.16605,857.625 651.56732,856.3294 c 12.1028,-0.36933 90.19233,58.56863 134.1578,80.63332 25.1062,-16.22264 48.71931,-34.56052 70.5075,-54.84772 -54.89512,9.085 -138.3369,-83.74 -225.15395,-49.87665 z"
     fill="#6e6e84"
     id="path49"
     style="stroke-width:0.9875" />
  <path
     d="M 512,0 A 512,512 0 0 0 0,512 512,512 0 0 0 512,1024 512,512 0 0 0 1024,512 512,512 0 0 0 512,0 Z m 0,51.2 A 460.79998,460.79998 0 0 1 972.8,512 460.79998,460.79998 0 0 1 512,972.79998 460.79998,460.79998 0 0 1 51.2,512 460.79998,460.79998 0 0 1 512,51.2 Z"
     style="fill:#1f8484;fill-opacity:1;stroke-width:4.35199"
     id="path52" />
</svg>
